<svg width="164" height="36" viewBox="0 0 164 36" fill="none" xmlns="http://www.w3.org/2000/svg">
<g opacity="0.95">
<rect width="163.649" height="35.9013" fill="white"/>
<rect x="2.75684" y="2.936" width="29.5824" height="30.248" fill="black"/>
<rect x="34.9199" y="2.936" width="29.5824" height="30.248" fill="black"/>
<rect x="67.0801" y="2.936" width="29.5824" height="30.248" fill="black"/>
<rect x="99.1709" y="2.936" width="29.5824" height="30.248" fill="black"/>
<rect x="131.285" y="2.936" width="29.5824" height="30.248" fill="black"/>
<path d="M13.405 23.088C14.5709 24.2987 15.3945 25.4453 17.9268 25.4453C19.5312 25.4453 20.943 24.2667 20.943 22.9307C20.943 18.6 10.699 21.064 10.699 13.3147C10.699 9.144 14.0575 6.62933 18.7209 6.62933C21.0527 6.62933 23.8951 7.84 25.299 9.58933L22.4832 12.6453C21.3923 11.5653 19.7103 10.6667 18.4509 10.6667C16.8759 10.6667 15.4346 11.304 15.4346 13.3093C15.4346 17.0427 25.6787 14.36 25.6787 22.9573C25.6787 26.936 22.1142 29.4827 17.6968 29.4827C14.7554 29.4827 12.2846 28.336 10.2979 26.0773L13.405 23.088Z" fill="white"/>
<path d="M43.4229 28.9787V7.13866H56.0628L56.8169 11.184H47.9446V15.544H55.0681V19.5867H47.9446V24.936H57.9132L56.4746 28.9787H43.4229Z" fill="white"/>
<path d="M77.1472 23.088C78.3104 24.2987 79.134 25.4453 81.6662 25.4453C83.2706 25.4453 84.6825 24.2667 84.6825 22.9307C84.6825 18.6 74.4384 21.064 74.4384 13.3147C74.4384 9.144 77.797 6.62933 82.4604 6.62933C84.7921 6.62933 87.6346 7.84 89.0384 9.58933L86.2227 12.6453C85.1291 11.5653 83.4498 10.672 82.1823 10.672C80.6073 10.672 79.166 11.3093 79.166 13.3147C79.166 17.048 89.4101 14.3653 89.4101 22.9627C89.4101 26.9413 85.8457 29.488 81.4282 29.488C78.4868 29.488 76.0161 28.3413 74.0293 26.0827L77.1472 23.088Z" fill="white"/>
<path d="M153.137 28.6613C152.142 29.1947 150.361 29.488 149.3 29.488C142.037 29.488 137.208 24.4213 137.208 18.0587C137.208 11.7547 142.142 6.62933 149.163 6.62933C150.295 6.62933 152.006 6.88267 152.966 7.42933L153.72 12.496C152.349 11.4652 150.674 10.9158 148.958 10.9333C144.813 10.9333 141.936 14.3707 141.936 18.064C141.931 19.9688 142.693 21.7959 144.049 23.1365C145.406 24.4772 147.245 25.2195 149.155 25.1973C151.027 25.1973 152.511 24.304 153.744 23.3813L153.137 28.6613Z" fill="white"/>
<path d="M102.382 28.792L114.059 6.65334L125.86 28.792H102.382Z" fill="white"/>
<path d="M109.254 24.688H119.108L114.179 15.2987L109.254 24.688Z" fill="#EF3E42"/>
</g>
</svg>
