<?xml version="1.0" encoding="utf-8"?>
<!-- Generator: Adobe Illustrator 12.0.0, SVG Export Plug-In  -->
<!DOCTYPE svg PUBLIC "-//W3C//DTD SVG 1.1//EN" "http://www.w3.org/Graphics/SVG/1.1/DTD/svg11.dtd" [
	<!ENTITY ns_flows "http://ns.adobe.com/Flows/1.0/">
	<!ENTITY ns_svg "http://www.w3.org/2000/svg">
	<!ENTITY ns_xlink "http://www.w3.org/1999/xlink">
]>
<svg  version="1.1" xmlns="&ns_svg;" xmlns:xlink="&ns_xlink;" xmlns:a="http://ns.adobe.com/AdobeSVGViewerExtensions/3.0/"
	 width="501" height="300" viewBox="-0.378 -0.878 501 300" enable-background="new -0.378 -0.878 501 300" xml:space="preserve">
<defs>
</defs>
<line fill="none" stroke="#164A97" stroke-width="0.482" stroke-miterlimit="2.6131" x1="177.001" y1="234.197" x2="177.001" y2="298.614"/>
<path fill-rule="evenodd" clip-rule="evenodd" fill="#164A97" d="M374.174,102.95c0,18.363-3.313,46.359-12.645,62.312
	c-16.556,27.694-44.25,39.436-97.532,39.436c-52.678,0-80.975-11.741-97.229-39.436c-9.332-15.953-12.944-43.949-12.944-62.312
	c0-18.06,3.612-47.56,12.944-63.515C183.022,11.739,211.018,0,263.997,0c53.282,0,80.977,11.739,97.532,39.435
	C370.861,55.39,374.174,84.89,374.174,102.95L374.174,102.95z"/>
<path fill-rule="evenodd" clip-rule="evenodd" fill="#FFFFFF" d="M272.727,147.803c3.915,9.331,12.644,12.343,18.665,12.343
	c15.05,0,23.779-15.353,18.361-27.996l-26.188-64.118c-4.215-9.634-12.944-12.343-18.965-12.343
	c-12.943,0-24.082,13.547-18.363,27.996L272.727,147.803L272.727,147.803z M304.636,99.338c4.214,9.333,12.943,12.343,18.964,12.343
	c14.75,0,23.782-16.857,18.362-29.2l-6.021-14.448c-3.912-9.634-12.642-12.343-18.965-12.343c-12.941,0-23.779,13.547-18.059,27.996
	L304.636,99.338L304.636,99.338z M219.446,147.803c3.915,9.331,12.643,12.343,18.665,12.343c15.05,0,24.081-15.353,18.663-27.996
	l-26.491-64.118c-4.213-9.634-12.944-12.343-18.963-12.343c-12.946,0-23.781,13.547-18.363,27.996L219.446,147.803L219.446,147.803z
	"/>
<polygon fill-rule="evenodd" clip-rule="evenodd" fill="#060505" points="0,254.064 3.312,254.064 10.235,276.641 10.235,276.641 
	16.857,254.064 20.469,254.064 26.791,276.641 27.093,276.641 33.715,254.064 37.327,254.064 28.597,280.556 25.287,280.556 
	18.663,258.279 18.663,258.279 12.041,280.556 8.429,280.556 0,254.064 "/>
<path fill-rule="evenodd" clip-rule="evenodd" fill="#060505" d="M57.496,270.32c0,5.117-4.215,8.127-9.333,8.127
	c-3.01,0-5.719-1.807-5.719-5.118c0-5.117,6.623-5.117,12.342-6.021c0.903-0.3,2.107-0.603,2.709-1.203l0,0V270.32L57.496,270.32z
	 M43.347,262.191c0.301-4.515,3.312-6.321,7.225-6.321c3.913,0,6.923,1.203,6.923,5.418c0,3.012-1.506,3.312-4.215,3.611
	c-6.923,0.906-14.147,1.206-14.147,8.43c0,5.418,3.912,7.826,8.729,7.826c5.116,0,7.525-1.806,9.934-5.417l0,0
	c0,3.009,0.602,4.817,3.612,4.817c0.903,0,1.504,0,2.107-0.303v-2.709c0,0-0.603,0.3-0.903,0.3c-1.205,0-1.807-0.902-1.807-2.105
	v-14.147c0-6.924-5.117-8.43-9.934-8.43c-6.019,0-10.234,2.709-10.535,9.03H43.347L43.347,262.191z"/>
<path fill-rule="evenodd" clip-rule="evenodd" fill="#060505" d="M68.632,254.064h3.012v6.021l0,0
	c1.806-4.215,5.118-6.623,9.934-6.623v3.312c-5.719-0.3-9.634,4.215-9.634,9.632v14.15h-3.312V254.064L68.632,254.064z"/>
<path fill-rule="evenodd" clip-rule="evenodd" fill="#060505" d="M86.093,254.064h3.312v4.515l0,0
	c1.205-3.312,4.816-5.418,8.428-5.418c7.526,0,9.632,3.912,9.632,10.235v17.159h-3.01v-16.559c0-4.515-1.504-8.127-6.924-8.127
	c-5.116,0-8.126,3.912-8.126,9.029v15.656h-3.312V254.064L86.093,254.064z"/>
<path fill-rule="evenodd" clip-rule="evenodd" fill="#060505" d="M115.593,265.503c0.603-5.118,3.312-9.633,8.729-9.633
	c5.119,0,8.128,4.515,8.429,9.633H115.593L115.593,265.503z M136.063,268.212c0.3-7.524-3.312-15.051-11.741-15.051
	c-8.428,0-12.042,6.924-12.042,14.147c0,7.526,3.613,13.847,12.042,13.847c6.624,0,10.235-3.312,11.439-9.332h-3.01
	c-1.205,3.915-3.613,6.624-8.429,6.624c-6.321,0-8.729-5.718-8.729-10.235H136.063L136.063,268.212z"/>
<path fill-rule="evenodd" clip-rule="evenodd" fill="#060505" d="M140.879,254.064h3.01v6.021l0,0
	c1.806-4.215,5.418-6.623,9.934-6.623v3.312c-5.721-0.3-9.633,4.215-9.633,9.632v14.15h-3.312V254.064L140.879,254.064z"/>
<path fill-rule="evenodd" clip-rule="evenodd" fill="#060505" d="M199.879,254.064h3.01v4.515l0,0
	c1.806-3.312,4.515-5.418,8.729-5.418c3.612,0,6.622,1.807,7.526,5.118c1.806-3.312,5.116-5.118,8.428-5.118
	c6.021,0,8.729,3.01,8.729,9.333v18.062h-3.009v-18.062c0-4.215-1.807-6.624-6.322-6.624c-5.719,0-7.225,4.515-7.225,9.633v15.053
	h-3.311v-18.062c0-3.615-1.206-6.624-5.419-6.624c-5.719,0-7.826,4.215-7.826,9.936v14.75h-3.312V254.064L199.879,254.064z"/>
<path fill-rule="evenodd" clip-rule="evenodd" fill="#060505" d="M263.997,280.556h-3.009v-4.817l0,0
	c-1.806,3.611-5.118,5.417-9.032,5.417c-6.924,0-9.331-3.911-9.331-9.932v-17.159h3.312v17.159c0,4.814,1.805,7.224,6.924,7.224
	c5.419,0,7.825-5.118,7.825-10.536v-13.847h3.312V280.556L263.997,280.556z"/>
<path fill-rule="evenodd" clip-rule="evenodd" fill="#060505" d="M287.177,261.591c-0.301-3.914-3.313-5.721-6.924-5.721
	c-3.009,0-6.32,1.203-6.32,4.515c0,3.012,3.312,3.915,5.417,4.515l4.215,0.906c3.912,0.6,7.523,2.709,7.523,7.523
	c0,5.721-5.718,7.826-10.535,7.826c-6.021,0-10.232-2.708-10.835-9.332h3.312c0.3,4.518,3.309,6.624,7.826,6.624
	c3.009,0,7.224-1.203,7.224-5.118c0-3.009-3.009-3.912-6.021-4.814l-3.911-0.906c-4.215-0.902-7.527-2.405-7.527-6.921
	c0-5.42,5.418-7.526,9.933-7.526c5.421,0,9.633,2.709,9.633,8.43H287.177L287.177,261.591z"/>
<path fill-rule="evenodd" clip-rule="evenodd" fill="#060505" d="M296.809,254.064h3.012v26.491h-3.012V254.064L296.809,254.064z
	 M296.809,243.829h3.012v5.118h-3.012V243.829L296.809,243.829z"/>
<path fill-rule="evenodd" clip-rule="evenodd" fill="#060505" d="M324.803,262.191c-0.899-3.912-3.309-6.321-7.523-6.321
	c-6.021,0-9.332,5.721-9.332,11.438c0,5.421,3.312,11.139,9.332,11.139c4.215,0,7.224-3.01,7.826-7.526h3.313
	c-0.903,6.323-5.118,10.234-11.139,10.234c-8.129,0-12.341-6.32-12.341-13.847c0-7.826,4.212-14.147,12.341-14.147
	c5.718,0,9.933,3.01,10.836,9.03H324.803L324.803,262.191z"/>
<path fill-rule="evenodd" clip-rule="evenodd" fill="#060505" d="M386.212,277.544c-6.018,0-8.729-5.418-8.729-10.535
	c0-5.721,2.712-11.139,8.729-11.139c6.023,0,8.43,5.721,8.43,11.139S391.933,277.544,386.212,277.544L386.212,277.544z
	 M397.953,254.064h-3.312v4.515l0,0c-1.203-3.009-4.516-5.418-8.43-5.418c-7.523,0-12.038,6.021-12.038,13.244
	c0,7.827,3.611,13.848,12.038,13.848c3.914,0,6.924-2.409,8.43-5.418l0,0v3.612c0,6.323-2.406,9.935-8.43,9.935
	c-3.612,0-6.924-1.506-7.826-5.42h-3.01c0.301,5.721,5.721,8.129,10.836,8.129c8.732,0,11.741-4.817,11.741-12.644V254.064
	L397.953,254.064z"/>
<path fill-rule="evenodd" clip-rule="evenodd" fill="#060505" d="M404.273,254.064h3.012v6.021l0,0
	c1.503-4.215,5.118-6.623,9.933-6.623v3.312c-5.718-0.3-9.933,4.215-9.933,9.632v14.15h-3.012V254.064L404.273,254.064z"/>
<path fill-rule="evenodd" clip-rule="evenodd" fill="#060505" d="M430.465,255.87c6.32,0,9.329,5.721,9.329,11.438
	c0,5.421-3.009,11.139-9.329,11.139c-6.021,0-9.333-5.718-9.333-11.139C421.132,261.591,424.444,255.87,430.465,255.87
	L430.465,255.87z M430.465,253.161c-8.13,0-12.344,6.321-12.344,14.147c0,7.526,4.214,13.847,12.344,13.847
	c8.126,0,12.641-6.32,12.641-13.847C443.105,259.482,438.591,253.161,430.465,253.161L430.465,253.161z"/>
<path fill-rule="evenodd" clip-rule="evenodd" fill="#060505" d="M469.297,280.556h-3.012v-4.817l0,0
	c-1.806,3.611-5.117,5.417-9.332,5.417c-6.621,0-9.029-3.911-9.029-9.932v-17.159h3.009v17.159c0.303,4.814,2.108,7.224,7.227,7.224
	c5.417,0,7.826-5.118,7.826-10.536v-13.847h3.312V280.556L469.297,280.556z"/>
<path fill-rule="evenodd" clip-rule="evenodd" fill="#060505" d="M496.688,267.309c0,5.421-2.709,11.139-8.729,11.139
	c-6.924,0-9.332-5.718-9.332-11.139c0-6.021,2.108-11.438,9.332-11.438C493.979,255.87,496.688,261.591,496.688,267.309
	L496.688,267.309z M475.317,290.188h3.31v-14.75l0,0c1.506,3.912,5.42,5.718,9.332,5.718c8.129,0,12.041-6.32,12.041-13.847
	s-3.912-14.147-12.041-14.147c-4.215,0-7.826,2.106-9.332,5.718h-0.301v-4.814h-3.009V290.188L475.317,290.188z"/>
<line fill="none" stroke="#164A97" stroke-width="0.482" stroke-miterlimit="2.6131" x1="350.994" y1="234.197" x2="350.994" y2="298.614"/>
</svg>
